<svg xmlns:dc="http://purl.org/dc/elements/1.1/" xmlns:cc="http://creativecommons.org/ns#" xmlns:rdf="http://www.w3.org/1999/02/22-rdf-syntax-ns#" xmlns:svg="http://www.w3.org/2000/svg" xmlns="http://www.w3.org/2000/svg" xmlns:sodipodi="http://sodipodi.sourceforge.net/DTD/sodipodi-0.dtd" xmlns:inkscape="http://www.inkscape.org/namespaces/inkscape" height="300px" width="300px" fill="##9146ff" viewBox="0 0 8.4666667 8.4666669" version="1.1" x="0px" y="0px"><g><path style="color:#000000;font-style:normal;font-variant:normal;font-weight:normal;font-stretch:normal;font-size:medium;line-height:normal;font-family:sans-serif;font-variant-ligatures:normal;font-variant-position:normal;font-variant-caps:normal;font-variant-numeric:normal;font-variant-alternates:normal;font-feature-settings:normal;text-indent:0;text-align:start;text-decoration:none;text-decoration-line:none;text-decoration-style:solid;text-decoration-color:#000000;letter-spacing:normal;word-spacing:normal;text-transform:none;writing-mode:lr-tb;direction:ltr;text-orientation:mixed;dominant-baseline:auto;baseline-shift:baseline;text-anchor:start;white-space:normal;shape-padding:0;clip-rule:nonzero;display:inline;overflow:visible;visibility:visible;opacity:1;isolation:auto;mix-blend-mode:normal;color-interpolation:sRGB;color-interpolation-filters:linearRGB;solid-color:#000000;solid-opacity:1;vector-effect:none;fill: #9146ff;fill-opacity:1;fill-rule:nonzero;stroke:none;stroke-width:0.52916676;stroke-linecap:round;stroke-linejoin:round;stroke-miterlimit:4;stroke-dasharray:none;stroke-dashoffset:0;stroke-opacity:1;color-rendering:auto;image-rendering:auto;shape-rendering:auto;text-rendering:auto;enable-background:accumulate;" d="M 1.0567829,1.5998757 A 0.26460984,0.26460984 0 0 0 0.83560977,1.7094297 C 0.29319542,2.4394277 5.3333338e-8,3.3254037 5.3333338e-8,4.2348587 5.3333338e-8,5.1443927 0.29310811,6.0302527 0.83560977,6.7602857 A 0.26536038,0.26536038 0 1 0 1.2614222,6.4435077 C 0.78669361,5.8046767 0.52916671,5.0307707 0.52916671,4.2348587 c 0,-0.795843 0.25760363,-1.570365 0.73225549,-2.209167 A 0.26460984,0.26460984 0 0 0 1.0567829,1.5998757 Z m 6.3453512,0 A 0.26460987,0.26460987 0 0 0 7.2067949,2.0256917 C 7.6814494,2.6644937 7.9375,3.4390157 7.9375,4.2348587 c 0,0.795912 -0.2559738,1.569818 -0.7307051,2.208649 A 0.26536145,0.26536145 0 1 0 7.63261,6.7602857 c 0.5425043,-0.730031 0.8340566,-1.615893 0.8340566,-2.525427 0,-0.909455 -0.2916423,-1.795431 -0.8340566,-2.525429 A 0.26460987,0.26460987 0 0 0 7.4021341,1.5998757 Z m -5.4647835,0.77928 a 0.26460984,0.26460984 0 0 0 -0.2165244,0.117306 c -0.3531499,0.510654 -0.5410517,1.117526 -0.5410517,1.738397 0,0.62098 0.187788,1.227688 0.5410517,1.738395 A 0.26465591,0.26465591 0 1 0 2.1559414,5.6719807 C 1.8638362,5.2496897 1.7089411,4.7483327 1.7089411,4.2348587 c 0,-0.513384 0.1549903,-1.015394 0.4470003,-1.43764 A 0.26460984,0.26460984 0 0 0 1.9373506,2.3791557 Z m 4.5842158,0 a 0.26460987,0.26460987 0 0 0 -0.2092881,0.418063 c 0.2920101,0.422246 0.4475163,0.924256 0.4475163,1.43764 2.6e-6,0.513474 -0.1569614,1.014831 -0.4490667,1.437122 a 0.26465591,0.26465591 0 1 0 0.4351152,0.301273 c 0.3532637,-0.510707 0.5431181,-1.117415 0.5431181,-1.738395 0,-0.620871 -0.1899708,-1.227743 -0.5431181,-1.738397 A 0.26460987,0.26460987 0 0 0 6.5215664,2.3791557 Z m -2.2871985,0.06666 c -0.9848427,0 -1.7890384,0.804195 -1.7890384,1.789038 0,0.984843 0.8041957,1.789036 1.7890384,1.789036 0.9848426,0 1.7890383,-0.804193 1.7890383,-1.789036 0,-0.984843 -0.8041957,-1.789038 -1.7890383,-1.789038 z"/></g></svg>